<svg version="1" xmlns="http://www.w3.org/2000/svg" width="933.333" height="933.333" viewBox="0 0 700.000000 700.000000"><path d="M509 303.4c-28.3 91.6-51.8 166.2-52.2 165.8-.3-.4-10.6-32.4-22.9-71.2-12.2-38.8-22.7-71.1-23.2-71.8-1-1.3-20.7-1.8-20.7-.4 0 .4 12.5 39.7 27.8 87.2l27.8 86.5h22.9l56-180.5 56.1-180.5-3.6-.7c-1.9-.4-6.4-.7-10-.7l-6.5-.1L509 303.4zM114.5 241.7c.3 1.6 23.2 73.4 50.8 159.8l50.2 157 20.7.3 20.7.2 3.6-11.2c1.9-6.2 24.8-78.1 50.9-159.8l47.4-148.5-18.1-.3c-10-.1-18.6-.1-19.2.2-.6.2-20 60.1-43 133-23 73-42.2 132.3-42.6 131.9-.4-.5-17.2-53.2-37.4-117.3-20.1-64.1-38.9-123.6-41.6-132.3l-5-15.7h-38.1l.7 2.7z"/></svg>