<svg version="1" xmlns="http://www.w3.org/2000/svg" width="933.333" height="933.333" viewBox="0 0 700.000000 700.000000"><path d="M560.5 138.2c-.9 2.5-13.6 43.3-14 44.8-.2.8-2.8 9.4-5.8 19-7.7 24.4-9.6 30.6-11.7 37.5-1 3.3-5.9 19.3-11 35.5s-9.8 31.5-10.5 34c-.7 2.5-2.4 8.1-3.8 12.5s-3.7 11.8-5.1 16.5c-1.5 4.7-3.7 11.9-5.1 16-2.6 8.4-8.7 28.2-13.5 44-1.8 5.8-3.8 12.3-4.6 14.5-.7 2.2-5 15.9-9.5 30.5-7.5 24.5-9.9 31-9.9 26.8 0-.9-2.4-9.2-5.4-18.5-3-9.2-8.2-25.6-11.6-36.3-3.4-10.7-7.7-24.2-9.5-30-4.8-14.8-17.6-55.1-18.2-57.3-.3-.9-1.5-1.7-2.7-1.8-2.6-.1-18-.1-18.3 0-.2.1-.2.1 6.5 21.1 2.8 8.5 9.1 28.3 14.2 44 9.1 28.5 11.7 36.4 26.9 83.5l8 25 10.3-.2c5.7 0 10.8-.2 11.4-.2.7-.1 1.5-1.3 1.8-2.9.4-1.5 2.7-9 5.1-16.7 2.4-7.7 8.5-27.3 13.5-43.5s10.9-35.1 13-42c11.3-36.1 16.1-51.6 16.5-53 .2-.8 1.7-5.8 3.4-11 1.6-5.2 7.6-24.8 13.4-43.5 5.8-18.7 11.7-37.6 13.1-42 1.4-4.4 6.6-21.3 11.6-37.5s10.4-33.6 12-38.5c5.7-18 9.1-29.7 8.8-30.1-.2-.2-4.5-.6-9.6-.9-7-.4-9.3-.3-9.7.7zM114 239.7c0 .1.6 2.2 1.4 4.5.8 2.4 4.4 13.7 8.1 25.3 3.7 11.5 8.6 27.1 11 34.5 7.8 24.2 24.9 77.5 39.2 122.5 1.9 6 5.7 17.7 8.3 26 7.9 24.4 20.4 63.6 27 84.5 3.4 10.7 6.5 19.9 6.9 20.3.6.6 17 .9 38.6.7 1.9 0 2.6-.7 3.3-3.3.9-2.9 37.8-118.3 40.1-125.2.5-1.7 3.5-11.1 6.6-21 3.1-9.9 6.9-21.8 8.4-26.5 1.6-4.7 5.4-16.6 8.5-26.5 3.2-9.9 7.5-23.4 9.6-30 2.1-6.6 7.1-22.1 11-34.5 3.9-12.4 7.7-24.3 8.5-26.5 4-11.6 7.5-23.7 7.1-24.3-.6-1.1-35.5-.7-36.5.4-.5.5-3.1 8.1-5.9 16.9-2.8 8.8-7.5 23.9-10.6 33.5-5.6 17.9-23.4 74.3-28.6 90.5-1.5 4.9-10.6 33.5-20 63.5-21.1 67.1-19.7 62.8-20.4 61-.5-1.4-5.6-17.5-9.6-30.5-1.9-6.3-10.3-32.9-16.5-52.5-7-22-15.7-49.7-23.6-75-4.4-14-10.7-34.1-14.1-44.5-3.3-10.5-7.3-23.2-8.9-28.3-6.7-21.3-8.8-27.9-10.1-31.7l-1.3-3.9-18.7-.1c-10.4 0-18.8.1-18.8.2z"/></svg>